<svg xmlns="http://www.w3.org/2000/svg" viewBox="0 0 438.76 435.99"><title>Asset 9</title><g id="Layer_2" data-name="Layer 2"><g id="Слой_1" data-name="Слой 1"><path d="M398.47,150.39c57.19,38.7,44.4,150.4,17.4,179.6S287,456,175.07,432.29C62.37,408.39-30,231.79,9.17,132.69s163.6-163.6,262.7-117.5S327.06,102,398.47,150.39Z" fill="#faeba0"/><circle cx="205.57" cy="230.09" r="142.8" transform="translate(-102.49 212.75) rotate(-45)" fill="#acd8cf"/><path d="M139.27,103.59a143.58,143.58,0,0,0-65.41,71.2c4.2,8.6,15,27.3,24.1,32.8,11.5,6.9,8,26.4,18.9,31.6s-.7,27,22.3,37.9,33.3-2.9,42.5,9.8,8,28.1,28.7,42.5,33.91,4.6,27-2.9-17.2-20.1-16.59-29.8,21.2-28.1,16.59-52.8-6.3-36.2-40.2-36.2c-5.4-5.7-18.1-16.5-26.4-13.8-10.3,3.4-21.2,42.5-44.8,25.3s3.4-44.3,24.1-44.3,31.6-4.5,31.6-17.7S183.37,124.09,139.27,103.59Z" fill="#c9b382"/><path d="M348.37,230.09a137.39,137.39,0,0,0-1.81-22.5c-6.3.1-22.09,2.6-34.5,11.5-15.59,11.1-22.5,18.4-15.59,34.4s17.3,16.1,8.69,33.3-8.69,36.8-8.69,53.4A142.52,142.52,0,0,0,348.37,230.09Z" fill="#c9b382"/><path d="M205.27,375.89c-80.41,0-145.8-65.4-145.8-145.8a143.69,143.69,0,0,1,11.4-56.5,146.06,146.06,0,0,1,186.4-79.8,122.37,122.37,0,0,1-5.3-12.9c-2.4-6.8-3.6-12.5-3.6-16.9a51.4,51.4,0,0,1,102.8,0c0,4.4-1.2,9.9-3.5,16.5a171.35,171.35,0,0,1-8.5,19.6,420.68,420.68,0,0,1-21.4,37.1,144.77,144.77,0,0,1,31.5,69.8,148.52,148.52,0,0,1,1.8,23,144.85,144.85,0,0,1-42.7,103.1c-1.8,1.8-3.7,3.6-5.6,5.3-1.7,1.5-3.2,2.8-4.6,4A145.66,145.66,0,0,1,205.27,375.89Zm0-288.6a142.63,142.63,0,0,0-131.7,87.4A141.5,141.5,0,0,0,62.47,230c0,78.7,64.1,142.8,142.8,142.8a143,143,0,0,0,91-32.7c1.4-1.2,2.9-2.5,4.6-3.9,1.8-1.7,3.69-3.4,5.4-5.2a141.73,141.73,0,0,0,41.8-101,142.88,142.88,0,0,0-33.4-91.8l-.7-.8.6-.9a425.72,425.72,0,0,0,21.8-37.8,185.62,185.62,0,0,0,8.4-19.2q3.3-9.45,3.3-15.6a48.4,48.4,0,1,0-96.8,0c0,4.1,1.2,9.5,3.4,15.9h0c1.7,4.7,4,10.1,6.8,16l1.7,3.5-3.6-1.5A145.41,145.41,0,0,0,205.27,87.29Zm94.39,5.3a31.2,31.2,0,1,1,31.2-31.2A31.24,31.24,0,0,1,299.66,92.59Zm0-59.4a28.2,28.2,0,1,0,28.2,28.2A28.23,28.23,0,0,0,299.66,33.19Z" fill="#fff"/><path d="M299.66,163.69l18-26.4-60.5-43.4C268.37,115.59,283.06,139.19,299.66,163.69Z" fill="#fff"/><path d="M300,159s48.4-68.2,48.4-94.9a48.41,48.41,0,0,0-96.81,0C251.56,90.79,300,159,300,159Zm0-66.4a31.2,31.2,0,1,0-31.2-31.2A31.24,31.24,0,0,0,300,92.59Z" fill="#e06f5d" fill-rule="evenodd"/></g></g></svg>